HIERARCHY
ROOT Hips
{
	OFFSET -0.179506 -22.333345 2.821913
	CHANNELS 6 Xposition Yposition Zposition Zrotation Yrotation Xrotation 
	JOINT LeftUpLeg
	{
		OFFSET 6.951974 -9.140623 -0.681533
		CHANNELS 3 Zrotation Yrotation Xrotation
		JOINT LeftLeg
		{
			OFFSET 3.427654 -37.519855 -0.449580
			CHANNELS 3 Zrotation Yrotation Xrotation
			JOINT LeftFoot
			{
				OFFSET -1.359570 -39.796059 -4.369333
				CHANNELS 3 Zrotation Yrotation Xrotation
				JOINT LeftToe
				{
					OFFSET 2.635814 -5.579078 11.928840
					CHANNELS 3 Zrotation Yrotation Xrotation
					End Site
					{
						OFFSET 0.000000 0.000000 0.000000
					}
				}
			}
		}
	}
	JOINT RightUpLeg
	{
		OFFSET -6.767048 -9.052170 -0.431982
		CHANNELS 3 Zrotation Yrotation Xrotation
		JOINT RightLeg
		{
			OFFSET -3.829005 -38.256897 -0.885003
			CHANNELS 3 Zrotation Yrotation Xrotation
			JOINT RightFoot
			{
				OFFSET 1.577377 -39.841461 -4.231180
				CHANNELS 3 Zrotation Yrotation Xrotation
				JOINT RightToe
				{
					OFFSET -2.537174 -4.814398 12.334795
					CHANNELS 3 Zrotation Yrotation Xrotation
					End Site
					{
						OFFSET 0.000000 0.000000 0.000000
					}
				}
			}
		}
	}
	JOINT Spine
	{
		OFFSET -0.253288 10.896323 -2.669631
		CHANNELS 3 Zrotation Yrotation Xrotation
		JOINT Spine1
		{
			OFFSET 0.548704 13.518043 0.109247
			CHANNELS 3 Zrotation Yrotation Xrotation
			JOINT Spine2
			{
				OFFSET 0.145701 5.292222 2.542457
				CHANNELS 3 Zrotation Yrotation Xrotation
				JOINT Neck
				{
					OFFSET -0.277840 21.387037 -4.285703
					CHANNELS 3 Zrotation Yrotation Xrotation
					JOINT Head
					{
						OFFSET 0.515184 6.496960 5.134897
						CHANNELS 3 Zrotation Yrotation Xrotation
						End Site
						{
							OFFSET 0.000000 0.000000 0.000000
						}
					}
				}
				JOINT LeftShoulder
				{
					OFFSET 7.884473 12.174932 -3.408961
					CHANNELS 3 Zrotation Yrotation Xrotation
					JOINT LeftArm
					{
						OFFSET 9.097692 3.046888 -0.886815
						CHANNELS 3 Zrotation Yrotation Xrotation
						JOINT LeftForeArm
						{
							OFFSET 25.961220 -1.277207 -2.745643
							CHANNELS 3 Zrotation Yrotation Xrotation
							JOINT LeftHand
							{
								OFFSET 24.923361 0.898606 -0.117091
								CHANNELS 3 Zrotation Yrotation Xrotation
								End Site
								{
									OFFSET 0.000000 0.000000 0.000000
								}
							}
						}
					}
				}
				JOINT RightShoulder
				{
					OFFSET -8.175920 11.883285 -3.861528
					CHANNELS 3 Zrotation Yrotation Xrotation
					JOINT RightArm
					{
						OFFSET -9.601238 3.255117 -0.914307
						CHANNELS 3 Zrotation Yrotation Xrotation
						JOINT RightForeArm
						{
							OFFSET -25.374195 -1.332924 -2.140099
							CHANNELS 3 Zrotation Yrotation Xrotation
							JOINT RightHand
							{
								OFFSET -25.529810 0.777228 -0.555919
								CHANNELS 3 Zrotation Yrotation Xrotation
								End Site
								{
									OFFSET 0.000000 0.000000 0.000000
								}
							}
						}
					}
				}
			}
		}
	}
}
MOTION
Frames: 6
Frame Time: 0.033333
298.361420 107.709442 91.251198 -101.360331 3.139122 89.728744 -1.635627 -0.058291 8.314472 4.624212 -9.402654 -9.048788 3.542975 7.587899 -8.574905 nan nan nan 0.099698 1.565839 4.742910 -0.453444 5.437564 -8.062822 9.067108 0.033195 -0.547143 nan nan nan 0.107239 0.072313 6.732271 2.077091 -3.600891 0.334394 1.217890 -1.165800 -1.425839 -0.571167 -24.592915 5.013520 8.784139 -23.356429 -5.740270 -13.762453 7.272463 7.245119 -64.243380 -5.900683 11.591292 5.508712 -24.798133 2.288904 -4.792704 -17.425148 -28.616164 13.659406 -2.411188 0.523469 65.884849 2.158167 12.254244 -7.626726 26.315830 -3.697614 6.262779 11.340772 -23.229787 
298.356140 107.693565 91.252502 -101.390528 3.213553 89.655630 -1.547160 -0.002982 8.421309 4.602666 -9.475215 -9.083061 3.436739 7.599482 -8.566340 nan nan nan 0.224200 1.608663 4.800168 -0.539893 5.478551 -8.010596 9.166331 -0.068479 -0.653426 nan nan nan 0.212674 0.055595 6.832508 1.907429 -3.501318 0.055964 1.222942 -1.113613 -1.236279 -0.406358 -24.665892 5.160608 8.759800 -23.383842 -5.672349 -13.598320 7.093831 7.352017 -64.384194 -5.889676 11.600861 5.688474 -24.784424 2.279455 -4.675663 -17.441054 -28.954709 13.863147 -2.398190 0.436343 65.672417 1.997094 12.150972 -7.362010 26.377350 -3.454080 6.204119 11.196629 -23.566136 
298.337463 107.669334 91.263000 -101.426627 3.219984 89.577114 -1.532783 0.058872 8.582141 4.553738 -9.524841 -9.191360 3.386453 7.602632 -8.501020 nan nan nan 0.228260 1.629127 4.878765 -0.587046 5.542057 -7.985437 9.227951 -0.127453 -0.717447 nan nan nan 0.180372 0.062709 6.850650 1.869394 -3.473504 0.114279 1.237866 -1.017253 -1.287338 -0.354050 -24.763197 5.349273 8.799471 -23.393146 -5.740856 -13.518650 7.010812 7.453095 -64.433674 -5.913705 11.616218 5.741300 -24.798616 2.262606 -4.678553 -17.474543 -29.131288 13.985309 -2.423206 0.386552 65.545840 1.865472 12.094536 -7.292485 26.463236 -3.417603 6.325069 11.244470 -23.598070 
298.316772 107.643555 91.267426 -101.429565 3.224576 89.525936 -1.521423 0.126684 8.669592 4.521284 -9.574747 -9.236013 3.334503 7.584921 -8.493047 nan nan nan 0.204516 1.565797 4.929868 -0.579837 5.542368 -7.915874 9.278250 -0.136618 -0.671275 nan nan nan 0.162307 0.044256 6.847067 1.886016 -3.512530 0.155356 1.222575 -0.976818 -1.297485 -0.326222 -24.730826 5.372757 8.785153 -23.401730 -5.688552 -13.481486 7.025244 7.447031 -64.417245 -5.902250 11.618340 5.710989 -24.821040 2.234714 -4.726913 -17.493701 -29.224911 14.014935 -2.410302 0.354637 65.507390 1.810111 12.131211 -7.278209 26.504031 -3.464920 6.460134 11.311150 -23.671160 
298.291870 107.599670 91.256516 -101.426118 3.202636 89.487618 -1.596613 0.140607 8.721956 4.581710 -9.592566 -9.240866 3.324155 7.603622 -8.525959 nan nan nan 0.149609 1.483617 4.956245 -0.589044 5.418464 -7.789049 9.502582 -0.142422 -0.667723 nan nan nan 0.161109 0.066401 6.817951 1.895227 -3.537258 0.156558 1.197151 -1.018183 -1.247001 -0.249179 -24.665267 5.266292 8.694460 -23.406537 -5.526356 -13.582007 6.909102 7.452180 -64.333376 -5.853456 11.631670 5.866081 -24.798078 2.004395 -4.760724 -17.439590 -29.051332 14.049610 -2.331073 0.341949 65.482572 1.718267 12.202860 -7.376547 26.617231 -3.578562 6.492621 11.276877 -23.820102 
298.256104 107.550476 91.237595 -101.418443 3.204920 89.444845 -1.656344 0.118586 8.763787 4.629235 -9.514375 -9.196729 3.512998 7.608596 -8.592721 nan nan nan 0.116249 1.426060 5.019010 -0.581264 5.281545 -7.757706 9.707698 -0.102314 -0.692539 nan nan nan 0.183315 0.104589 6.800929 1.917281 -3.526687 0.213797 1.228095 -1.066963 -1.195954 -0.186341 -24.697286 5.095395 8.635994 -23.424086 -5.574259 -13.809485 6.809643 7.374593 -64.193720 -5.823872 11.612714 6.027102 -24.756349 1.776621 -4.888367 -17.375481 -28.774172 14.038556 -2.236577 0.508808 65.419671 1.709200 12.151519 -7.512322 26.840943 -3.640476 6.517362 11.179703 -23.821511 
